#!OML:ASF H:\Male1\Project 1\Capture day 1\Session 1\Male1.ASF
:FULLY-SPECIFIED
:DEGREES
1009
root 15.9548 15.7924 2.26221 505.625 -84.3331 -517.709
lowerback 14.4958 -0.00979901 -3.93546
upperback 8.17512 -0.984899 0.254921
thorax 0.575727 -0.846398 2.61536
lowerneck -28.5347 8.98088 -7.29435
upperneck 11.0558 -67.9237 -7.65194
head 220.817 -132.913 -0.376765
rclavicle -2.85256e-014 2.0276e-014
rhumerus -50.5294 6.90044 -81.162
rradius 54.539
rwrist -16.2762
rhand 4.9176 -19.782
rfingers 7.12502
rthumb 30.2914 -47.3161
lclavicle -2.85256e-014 2.0276e-014
lhumerus -24.8051 -3.96885 77.6981
lradius 33.6124
lwrist -4.43858
lhand -15.7757 12.7562
lfingers 7.12502
lthumb 10.4165 42.4782
rfemur -50.8625 -6.17955 14.5714
rtibia 144.058
rfoot 37.7823 5.93594
rtoes -16.0261
lfemur 18.9853 -13.0181 -28.5731
ltibia -4.92986e-014
lfoot -1.7677 26.941
ltoes 18.0434
1010
root 15.9597 15.7857 2.25391 509.534 -84.7006 -521.524
lowerback 14.3394 -0.0415571 -4.44517
upperback 8.10122 -1.07512 0.110571
thorax 0.597011 -0.900562 2.76148
lowerneck -28.2358 9.14212 -7.40667
upperneck 10.688 -67.4143 -7.24458
head 220.392 -134.094 -0.161536
rclavicle 4.96962e-016 -3.97569e-016
rhumerus -50.7647 6.9456 -81.2215
rradius 54.4844
rwrist -16.2638
rhand 5.10273 -19.5573
rfingers 7.12502
rthumb 30.468 -47.0588
lclavicle 4.96962e-016 -3.97569e-016
lhumerus -24.5867 -4.39418 77.883
lradius 33.9878
lwrist -4.04112
lhand -15.8556 12.7114
lfingers 7.12502
lthumb 10.3395 42.4372
rfemur -50.2029 -7.24729 13.7196
rtibia 143.346
rfoot 36.6724 6.17093
rtoes -15.1066
lfemur 18.8775 -13.2721 -29.0997
ltibia -3.10104e-014
lfoot -1.84389 27.3105
ltoes 17.912
1011
root 15.96 15.7773 2.24243 513.533 -84.8416 -525.425
lowerback 14.0796 0.00498039 -4.91521
upperback 8.0827 -1.0519 0.0110936
thorax 0.723934 -0.902743 2.91402
lowerneck -28.0252 9.19513 -7.41926
upperneck 10.2807 -66.7864 -6.84105
head 219.809 -135.252 0.292557
rclavicle 1.41137e-014 8.74653e-015
rhumerus -50.9359 6.92875 -81.2296
rradius 54.476
rwrist -16.3257
rhand 5.31863 -19.6272
rfingers 7.12502
rthumb 30.6738 -47.0903
lclavicle 1.41137e-014 8.74653e-015
lhumerus -24.3378 -4.87744 78.1035
lradius 34.3787
lwrist -3.68471
lhand -15.9237 12.6997
lfingers 7.12502
lthumb 10.2738 42.4288
rfemur -49.5617 -7.15632 13.6942
rtibia 142.143
rfoot 35.7156 5.78659
rtoes -13.1879
lfemur 18.788 -13.3761 -29.4702
ltibia -3.97569e-015
lfoot -2.17126 27.5728
ltoes 17.8804
1012
root 15.9591 15.7686 2.2291 514.603 -84.7559 -526.354
lowerback 13.7294 0.044202 -5.06135
upperback 8.10465 -0.992652 -0.0113776
thorax 0.931817 -0.881419 2.95807
lowerneck -27.9058 9.17094 -7.2969
upperneck 9.83744 -66.0296 -6.44249
head 219.104 -136.32 0.930819
rclavicle -1.98785e-016 0
rhumerus -50.9985 6.90158 -81.2368
rradius 54.4467
rwrist -16.5337
rhand 5.65337 -19.9737
rfingers 7.12502
rthumb 30.993 -47.3765
lclavicle -1.98785e-016 0
lhumerus -24.0624 -5.20088 78.2647
lradius 34.8339
lwrist -3.44912
lhand -15.9601 12.7392
lfingers 7.12502
lthumb 10.2386 42.47
rfemur -48.9781 -6.01526 14.6805
rtibia 140.463
rfoot 33.9309 4.91291
rtoes -14.0973
lfemur 18.6662 -13.4254 -29.4625
ltibia 2.62396e-014
lfoot -2.44904 27.7708
ltoes 17.8066
1013
root 15.9584 15.7619 2.21566 512.592 -84.6173 -524.192
lowerback 13.3687 0.0172041 -4.90456
upperback 8.13097 -0.9843 0.0419766
thorax 1.14824 -0.876663 2.91735
lowerneck -27.7892 9.151 -7.24597
upperneck 9.72302 -65.7116 -6.33463
head 218.709 -136.959 1.38402
rclavicle -1.49089e-014 1.19271e-014
rhumerus -50.9687 6.84012 -81.2117
rradius 54.291
rwrist -16.7365
rhand 5.98477 -20.3305
rfingers 7.12502
rthumb 31.3088 -47.6726
lclavicle -1.49089e-014 1.19271e-014
lhumerus -23.7719 -5.38424 78.4284
lradius 35.2047
lwrist -3.35265
lhand -15.9948 12.6626
lfingers 7.12502
lthumb 10.2051 42.3951
rfemur -48.2495 -4.4955 16.1669
rtibia 138.294
rfoot 31.406 3.7798
rtoes -16.6523
lfemur 18.5539 -13.5549 -29.1667
ltibia -3.97569e-014
lfoot -2.49879 27.9183
ltoes 17.8367
1014
root 15.9455 15.7483 2.20732 514.962 -84.5553 -526.453
lowerback 12.906 0.020486 -5.0561
upperback 8.13378 -0.962813 -0.0276707
thorax 1.39927 -0.872865 2.91853
lowerneck -27.6055 9.21144 -7.34691
upperneck 9.70962 -65.5354 -6.3033
head 218.499 -137.59 1.62776
rclavicle -1.03368e-014 2.38542e-015
rhumerus -51.0076 6.7961 -81.1339
rradius 54.0937
rwrist -16.8401
rhand 6.23555 -20.5886
rfingers 7.12502
rthumb 31.5477 -47.8842
lclavicle -1.03368e-014 2.38542e-015
lhumerus -23.596 -5.59801 78.6651
lradius 35.4711
lwrist -3.13771
lhand -16.0452 12.5891
lfingers 7.12502
lthumb 10.1565 42.324
rfemur -47.2518 -2.90511 16.8367
rtibia 135.813
rfoot 29.565 2.74753
rtoes -17.0157
lfemur 18.5191 -13.5446 -29.3619
ltibia -2.14687e-014
lfoot -2.54556 28.0509
ltoes 18.1973
1015
root 15.9326 15.7278 2.20008 520.693 -84.728 -532.099
lowerback 12.5526 0.000626048 -5.53515
upperback 8.08274 -1.00965 -0.212021
thorax 1.54831 -0.908865 2.99417
lowerneck -27.413 9.3597 -7.49839
upperneck 9.49889 -65.179 -6.07391
head 218.309 -138.441 1.67525
rclavicle 7.95139e-016 -1.51076e-014
rhumerus -51.137 6.77197 -81.052
rradius 53.9643
rwrist -16.9138
rhand 6.52086 -20.6451
rfingers 7.12502
rthumb 31.8195 -47.8871
lclavicle 7.95139e-016 -1.51076e-014
lhumerus -23.5499 -5.80556 78.9022
lradius 35.7452
lwrist -2.87238
lhand -16.0465 12.5999
lfingers 7.12502
lthumb 10.1553 42.3348
rfemur -46.12 -1.66821 16.6739
rtibia 133.152
rfoot 28.2314 2.03505
rtoes -17.7144
lfemur 18.4877 -13.6308 -29.9987
ltibia -7.95139e-015
lfoot -2.57623 28.2215
ltoes 18.4904
